# xmcd CD database file
#
# Track frame offsets:
#	150
#	17954
#	30893
#	51707
#	62751
#	83589
#	96566
#	115775
#	136558
#	161553
#	182182
#	207303
#
# Disc length: 2951 seconds
#
# Revision: 0
# Processed by: cddbd v1.5.2PL0 Copyright (c) Steve Scherf et al.
# Submitted via: CDex 1.70beta2
#
DISCID=9f0b850c
DTITLE=Pura Fe - Full Moon Rising
DYEAR=2009
DGENRE=Blues
TTITLE0=4 Daughters
TTITLE1=Grammah’s Easter Lullaby
TTITLE2=Mahk Jchi
TTITLE3=Great Grandpah’s Banjo
TTITLE4=Red, Black on Blues
TTITLE5=Duhgneh
TTITLE6=Condor Meets the Eagle
TTITLE7=Hard Time Killing Floor
TTITLE8=Stand Up for Human Pride
TTITLE9=Flight Tonight
TTITLE10=All My Relations
TTITLE11=The Jam
EXTD=YEAR: 2009
EXTT0=
EXTT1=
EXTT2=
EXTT3=
EXTT4=
EXTT5=
EXTT6=
EXTT7=
EXTT8=
EXTT9=
EXTT10=
EXTT11=
PLAYORDER=
